<?xml version="1.0" encoding="UTF-8" standalone="no"?>
<!DOCTYPE svg PUBLIC "-//W3C//DTD SVG 1.1//EN"
 "http://www.w3.org/Graphics/SVG/1.1/DTD/svg11.dtd">
<!-- Generated by graphviz version 2.43.0 (0)
 -->
<!-- Pages: 1 -->
<svg width="739pt" height="1150pt"
 viewBox="0.00 0.00 739.00 1150.00" xmlns="http://www.w3.org/2000/svg" xmlns:xlink="http://www.w3.org/1999/xlink">
<g id="graph0" class="graph" transform="scale(1 1) rotate(0) translate(4 1146)">
<polygon fill="white" stroke="transparent" points="-4,4 -4,-1146 735,-1146 735,4 -4,4"/>
<!-- main_brain -->
<g id="node1" class="node">
<title>main_brain</title>
<polygon fill="none" stroke="black" points="109,-1071.5 109,-1141.5 205,-1141.5 205,-1071.5 109,-1071.5"/>
<text text-anchor="middle" x="157" y="-1126.3" font-family="Times,serif" font-size="14.00">main_brain</text>
<polyline fill="none" stroke="black" points="109,-1118.5 205,-1118.5 "/>
<text text-anchor="middle" x="157" y="-1103.3" font-family="Times,serif" font-size="14.00"> </text>
<polyline fill="none" stroke="black" points="109,-1095.5 205,-1095.5 "/>
<text text-anchor="middle" x="157" y="-1079.8" font-family="Times,serif" font-size="14.00"> </text>
</g>
<!-- BrainRoot -->
<g id="node2" class="node">
<title>BrainRoot</title>
<polygon fill="none" stroke="black" points="222.5,-739.5 222.5,-854.5 367.5,-854.5 367.5,-739.5 222.5,-739.5"/>
<text text-anchor="middle" x="295" y="-839.3" font-family="Times,serif" font-size="14.00">BrainRoot</text>
<polyline fill="none" stroke="black" points="222.5,-831.5 367.5,-831.5 "/>
<text text-anchor="middle" x="295" y="-816.3" font-family="Times,serif" font-size="14.00">brain_message</text>
<text text-anchor="middle" x="295" y="-801.3" font-family="Times,serif" font-size="14.00">controller</text>
<text text-anchor="middle" x="295" y="-786.3" font-family="Times,serif" font-size="14.00">event_manager</text>
<text text-anchor="middle" x="295" y="-771.3" font-family="Times,serif" font-size="14.00">memory_manager</text>
<polyline fill="none" stroke="black" points="222.5,-763.5 367.5,-763.5 "/>
<text text-anchor="middle" x="295" y="-747.8" font-family="Times,serif" font-size="14.00"> </text>
</g>
<!-- main_brain&#45;&gt;BrainRoot -->
<g id="edge1" class="edge">
<title>main_brain&#45;&gt;BrainRoot</title>
<path fill="none" stroke="black" d="M172.16,-1071.7C194.59,-1021.7 237.02,-927.2 265.65,-863.39"/>
<polygon fill="black" stroke="black" points="268.87,-864.77 269.77,-854.21 262.48,-861.9 268.87,-864.77"/>
<text text-anchor="middle" x="262.5" y="-959.3" font-family="Times,serif" font-size="14.00">uses</text>
</g>
<!-- NeuralDatabase -->
<g id="node3" class="node">
<title>NeuralDatabase</title>
<polygon fill="none" stroke="black" points="127,-581 127,-666 259,-666 259,-581 127,-581"/>
<text text-anchor="middle" x="193" y="-650.8" font-family="Times,serif" font-size="14.00">NeuralDatabase</text>
<polyline fill="none" stroke="black" points="127,-643 259,-643 "/>
<text text-anchor="middle" x="193" y="-627.8" font-family="Times,serif" font-size="14.00">database</text>
<text text-anchor="middle" x="193" y="-612.8" font-family="Times,serif" font-size="14.00">mainbrain.db</text>
<polyline fill="none" stroke="black" points="127,-605 259,-605 "/>
<text text-anchor="middle" x="193" y="-589.3" font-family="Times,serif" font-size="14.00"> </text>
</g>
<!-- main_brain&#45;&gt;NeuralDatabase -->
<g id="edge2" class="edge">
<title>main_brain&#45;&gt;NeuralDatabase</title>
<path fill="none" stroke="black" d="M143.93,-1071.9C127.89,-1026.9 103.56,-944.43 110,-872.5 115.35,-812.67 114.75,-796.4 134,-739.5 141.52,-717.29 152.73,-694.05 163.36,-674.32"/>
<polygon fill="black" stroke="black" points="166.45,-675.97 168.19,-665.52 160.31,-672.6 166.45,-675.97"/>
<text text-anchor="middle" x="126.5" y="-876.3" font-family="Times,serif" font-size="14.00">uses</text>
</g>
<!-- BrainRegions -->
<g id="node4" class="node">
<title>BrainRegions</title>
<polygon fill="none" stroke="black" points="261,-302.5 261,-507.5 435,-507.5 435,-302.5 261,-302.5"/>
<text text-anchor="middle" x="348" y="-492.3" font-family="Times,serif" font-size="14.00">BrainRegions</text>
<polyline fill="none" stroke="black" points="261,-484.5 435,-484.5 "/>
<text text-anchor="middle" x="348" y="-469.3" font-family="Times,serif" font-size="14.00">AuditoryCortex</text>
<text text-anchor="middle" x="348" y="-454.3" font-family="Times,serif" font-size="14.00">BasalGanglia</text>
<text text-anchor="middle" x="348" y="-439.3" font-family="Times,serif" font-size="14.00">Brainstem</text>
<text text-anchor="middle" x="348" y="-424.3" font-family="Times,serif" font-size="14.00">Cerebellum</text>
<text text-anchor="middle" x="348" y="-409.3" font-family="Times,serif" font-size="14.00">Hippocampus</text>
<text text-anchor="middle" x="348" y="-394.3" font-family="Times,serif" font-size="14.00">Hypothalamus</text>
<text text-anchor="middle" x="348" y="-379.3" font-family="Times,serif" font-size="14.00">PrefrontalCortex</text>
<text text-anchor="middle" x="348" y="-364.3" font-family="Times,serif" font-size="14.00">SomatosensoryCortex</text>
<text text-anchor="middle" x="348" y="-349.3" font-family="Times,serif" font-size="14.00">Thalamus</text>
<text text-anchor="middle" x="348" y="-334.3" font-family="Times,serif" font-size="14.00">VisualCortex</text>
<polyline fill="none" stroke="black" points="261,-326.5 435,-326.5 "/>
<text text-anchor="middle" x="348" y="-310.8" font-family="Times,serif" font-size="14.00"> </text>
</g>
<!-- main_brain&#45;&gt;BrainRegions -->
<g id="edge3" class="edge">
<title>main_brain&#45;&gt;BrainRegions</title>
<path fill="none" stroke="black" d="M155.77,-1071.9C153.93,-1026.5 149.93,-943.28 143,-872.5 129.37,-733.17 51.79,-681.85 118,-558.5 146.43,-505.55 202.22,-467.87 251.73,-443.22"/>
<polygon fill="black" stroke="black" points="253.44,-446.28 260.9,-438.76 250.38,-439.99 253.44,-446.28"/>
<text text-anchor="middle" x="157.5" y="-793.3" font-family="Times,serif" font-size="14.00">uses</text>
</g>
<!-- NeuromodulatorySystems -->
<g id="node5" class="node">
<title>NeuromodulatorySystems</title>
<polygon fill="none" stroke="black" points="346.5,-558.5 346.5,-688.5 549.5,-688.5 549.5,-558.5 346.5,-558.5"/>
<text text-anchor="middle" x="448" y="-673.3" font-family="Times,serif" font-size="14.00">NeuromodulatorySystems</text>
<polyline fill="none" stroke="black" points="346.5,-665.5 549.5,-665.5 "/>
<text text-anchor="middle" x="448" y="-650.3" font-family="Times,serif" font-size="14.00">CholinergicSystem</text>
<text text-anchor="middle" x="448" y="-635.3" font-family="Times,serif" font-size="14.00">DopamineSystem</text>
<text text-anchor="middle" x="448" y="-620.3" font-family="Times,serif" font-size="14.00">NeuromodulatorySystem</text>
<text text-anchor="middle" x="448" y="-605.3" font-family="Times,serif" font-size="14.00">NoradrenergicSystem</text>
<text text-anchor="middle" x="448" y="-590.3" font-family="Times,serif" font-size="14.00">SerotoninSystem</text>
<polyline fill="none" stroke="black" points="346.5,-582.5 549.5,-582.5 "/>
<text text-anchor="middle" x="448" y="-566.8" font-family="Times,serif" font-size="14.00"> </text>
</g>
<!-- main_brain&#45;&gt;NeuromodulatorySystems -->
<g id="edge4" class="edge">
<title>main_brain&#45;&gt;NeuromodulatorySystems</title>
<path fill="none" stroke="black" d="M205.1,-1078.5C262.97,-1043.1 357.63,-974.98 400,-887.5 428.89,-827.85 440.48,-752.91 445.09,-698.31"/>
<polygon fill="black" stroke="black" points="448.61,-698.25 445.9,-688.01 441.63,-697.7 448.61,-698.25"/>
<text text-anchor="middle" x="421.5" y="-876.3" font-family="Times,serif" font-size="14.00">uses</text>
</g>
<!-- Neurons -->
<g id="node6" class="node">
<title>Neurons</title>
<polygon fill="none" stroke="black" points="402.5,-151.5 402.5,-251.5 537.5,-251.5 537.5,-151.5 402.5,-151.5"/>
<text text-anchor="middle" x="470" y="-236.3" font-family="Times,serif" font-size="14.00">Neurons</text>
<polyline fill="none" stroke="black" points="402.5,-228.5 537.5,-228.5 "/>
<text text-anchor="middle" x="470" y="-213.3" font-family="Times,serif" font-size="14.00">Interneurons</text>
<text text-anchor="middle" x="470" y="-198.3" font-family="Times,serif" font-size="14.00">MotorNeurons</text>
<text text-anchor="middle" x="470" y="-183.3" font-family="Times,serif" font-size="14.00">SensoryNeurons</text>
<polyline fill="none" stroke="black" points="402.5,-175.5 537.5,-175.5 "/>
<text text-anchor="middle" x="470" y="-159.8" font-family="Times,serif" font-size="14.00"> </text>
</g>
<!-- main_brain&#45;&gt;Neurons -->
<g id="edge5" class="edge">
<title>main_brain&#45;&gt;Neurons</title>
<path fill="none" stroke="black" d="M117.4,-1071.9C90.95,-1045.6 61,-1006.5 61,-964 61,-964 61,-964 61,-404 61,-242.97 243.47,-322.07 393.11,-253.67"/>
<polygon fill="black" stroke="black" points="394.97,-256.66 402.47,-249.18 391.94,-250.35 394.97,-256.66"/>
<text text-anchor="middle" x="77.5" y="-710.3" font-family="Times,serif" font-size="14.00">uses</text>
</g>
<!-- Synapses -->
<g id="node7" class="node">
<title>Synapses</title>
<polygon fill="none" stroke="black" points="365,-0.5 365,-100.5 575,-100.5 575,-0.5 365,-0.5"/>
<text text-anchor="middle" x="470" y="-85.3" font-family="Times,serif" font-size="14.00">Synapses</text>
<polyline fill="none" stroke="black" points="365,-77.5 575,-77.5 "/>
<text text-anchor="middle" x="470" y="-62.3" font-family="Times,serif" font-size="14.00">ExcitatorySynapses</text>
<text text-anchor="middle" x="470" y="-47.3" font-family="Times,serif" font-size="14.00">InhibitorySynapses</text>
<text text-anchor="middle" x="470" y="-32.3" font-family="Times,serif" font-size="14.00">NeuromodulatorySynapses</text>
<polyline fill="none" stroke="black" points="365,-24.5 575,-24.5 "/>
<text text-anchor="middle" x="470" y="-8.8" font-family="Times,serif" font-size="14.00"> </text>
</g>
<!-- main_brain&#45;&gt;Synapses -->
<g id="edge6" class="edge">
<title>main_brain&#45;&gt;Synapses</title>
<path fill="none" stroke="black" d="M108.61,-1086.1C62.48,-1064.1 0,-1023.3 0,-964 0,-964 0,-964 0,-200.5 0,-126.33 215.36,-84.3 354.52,-64.88"/>
<polygon fill="black" stroke="black" points="355.39,-68.3 364.82,-63.47 354.44,-61.36 355.39,-68.3"/>
<text text-anchor="middle" x="16.5" y="-619.8" font-family="Times,serif" font-size="14.00">uses</text>
</g>
<!-- Utils -->
<g id="node8" class="node">
<title>Utils</title>
<polygon fill="none" stroke="black" points="474.5,-905.5 474.5,-1020.5 631.5,-1020.5 631.5,-905.5 474.5,-905.5"/>
<text text-anchor="middle" x="553" y="-1005.3" font-family="Times,serif" font-size="14.00">Utils</text>
<polyline fill="none" stroke="black" points="474.5,-997.5 631.5,-997.5 "/>
<text text-anchor="middle" x="553" y="-982.3" font-family="Times,serif" font-size="14.00">data_loader</text>
<text text-anchor="middle" x="553" y="-967.3" font-family="Times,serif" font-size="14.00">feedback_processor</text>
<text text-anchor="middle" x="553" y="-952.3" font-family="Times,serif" font-size="14.00">signal_processing</text>
<text text-anchor="middle" x="553" y="-937.3" font-family="Times,serif" font-size="14.00">visualization</text>
<polyline fill="none" stroke="black" points="474.5,-929.5 631.5,-929.5 "/>
<text text-anchor="middle" x="553" y="-913.8" font-family="Times,serif" font-size="14.00"> </text>
</g>
<!-- main_brain&#45;&gt;Utils -->
<g id="edge7" class="edge">
<title>main_brain&#45;&gt;Utils</title>
<path fill="none" stroke="black" d="M205.15,-1103.3C262.41,-1099.2 359.81,-1087.4 436,-1053.5 452.02,-1046.4 467.84,-1036.6 482.44,-1026.2"/>
<polygon fill="black" stroke="black" points="484.89,-1028.74 490.88,-1020 480.75,-1023.1 484.89,-1028.74"/>
<text text-anchor="middle" x="476.5" y="-1042.3" font-family="Times,serif" font-size="14.00">uses</text>
</g>
<!-- BrainRoot&#45;&gt;NeuralDatabase -->
<g id="edge8" class="edge">
<title>BrainRoot&#45;&gt;NeuralDatabase</title>
<path fill="none" stroke="black" d="M259.05,-739.63C255.28,-733.54 251.53,-727.4 248,-721.5 238.94,-706.36 229.36,-689.71 220.78,-674.55"/>
<polygon fill="black" stroke="black" points="223.82,-672.81 215.86,-665.81 217.72,-676.24 223.82,-672.81"/>
<text text-anchor="middle" x="264.5" y="-710.3" font-family="Times,serif" font-size="14.00">uses</text>
</g>
<!-- BrainRoot&#45;&gt;BrainRegions -->
<g id="edge9" class="edge">
<title>BrainRoot&#45;&gt;BrainRegions</title>
<path fill="none" stroke="black" d="M293.7,-739.97C293.45,-691.61 295.17,-620.04 305,-558.5 307.15,-545.06 310.07,-531.11 313.39,-517.36"/>
<polygon fill="black" stroke="black" points="316.85,-517.95 315.88,-507.4 310.06,-516.25 316.85,-517.95"/>
<text text-anchor="middle" x="321.5" y="-619.8" font-family="Times,serif" font-size="14.00">uses</text>
</g>
<!-- BrainRoot&#45;&gt;NeuromodulatorySystems -->
<g id="edge10" class="edge">
<title>BrainRoot&#45;&gt;NeuromodulatorySystems</title>
<path fill="none" stroke="black" d="M345.1,-739.84C357.64,-725.79 371.26,-710.52 384.36,-695.83"/>
<polygon fill="black" stroke="black" points="387.11,-698 391.16,-688.21 381.89,-693.34 387.11,-698"/>
<text text-anchor="middle" x="387.5" y="-710.3" font-family="Times,serif" font-size="14.00">uses</text>
</g>
<!-- BrainRegions&#45;&gt;Neurons -->
<g id="edge11" class="edge">
<title>BrainRegions&#45;&gt;Neurons</title>
<path fill="none" stroke="black" d="M403.91,-302.82C410.54,-291.49 417.33,-280.19 424,-269.5 425.98,-266.32 428.05,-263.08 430.16,-259.82"/>
<polygon fill="black" stroke="black" points="433.25,-261.48 435.84,-251.21 427.41,-257.63 433.25,-261.48"/>
<text text-anchor="middle" x="440.5" y="-273.3" font-family="Times,serif" font-size="14.00">uses</text>
</g>
<!-- BrainRegions&#45;&gt;Synapses -->
<g id="edge12" class="edge">
<title>BrainRegions&#45;&gt;Synapses</title>
<path fill="none" stroke="black" d="M336,-302.92C334.51,-254.94 339.08,-198.07 361,-151.5 368.71,-135.13 380.43,-120.2 393.37,-107.15"/>
<polygon fill="black" stroke="black" points="395.91,-109.57 400.66,-100.1 391.04,-104.53 395.91,-109.57"/>
<text text-anchor="middle" x="377.5" y="-197.8" font-family="Times,serif" font-size="14.00">uses</text>
</g>
<!-- NeuromodulatorySystems&#45;&gt;BrainRegions -->
<g id="edge13" class="edge">
<title>NeuromodulatorySystems&#45;&gt;BrainRegions</title>
<path fill="none" stroke="black" d="M418.54,-558.71C412.39,-545.41 405.75,-531.03 399.08,-516.59"/>
<polygon fill="black" stroke="black" points="402.07,-514.71 394.7,-507.1 395.71,-517.65 402.07,-514.71"/>
<text text-anchor="middle" x="425.5" y="-529.3" font-family="Times,serif" font-size="14.00">uses</text>
</g>
<!-- NeuromodulatorySystems&#45;&gt;Neurons -->
<g id="edge14" class="edge">
<title>NeuromodulatorySystems&#45;&gt;Neurons</title>
<path fill="none" stroke="black" d="M451.34,-558.71C455.57,-477.89 462.81,-339.71 466.92,-261.33"/>
<polygon fill="black" stroke="black" points="470.43,-261.31 467.45,-251.14 463.44,-260.94 470.43,-261.31"/>
<text text-anchor="middle" x="480.5" y="-401.3" font-family="Times,serif" font-size="14.00">uses</text>
</g>
<!-- NeuromodulatorySystems&#45;&gt;Synapses -->
<g id="edge15" class="edge">
<title>NeuromodulatorySystems&#45;&gt;Synapses</title>
<path fill="none" stroke="black" d="M482.56,-558.73C527.59,-466.95 595.2,-293.09 547,-151.5 541.8,-136.21 533.21,-121.44 523.61,-108.15"/>
<polygon fill="black" stroke="black" points="526.34,-105.96 517.53,-100.08 520.75,-110.17 526.34,-105.96"/>
<text text-anchor="middle" x="579.5" y="-273.3" font-family="Times,serif" font-size="14.00">uses</text>
</g>
<!-- Neurons&#45;&gt;Synapses -->
<g id="edge16" class="edge">
<title>Neurons&#45;&gt;Synapses</title>
<path fill="none" stroke="black" d="M475.45,-151.96C476.15,-140.97 476.48,-129.34 476,-118.5 475.88,-115.8 475.73,-113.05 475.56,-110.27"/>
<polygon fill="black" stroke="black" points="479.04,-109.88 474.87,-100.14 472.06,-110.35 479.04,-109.88"/>
<text text-anchor="middle" x="492.5" y="-122.3" font-family="Times,serif" font-size="14.00">uses</text>
</g>
<!-- Synapses&#45;&gt;Neurons -->
<g id="edge17" class="edge">
<title>Synapses&#45;&gt;Neurons</title>
<path fill="none" stroke="black" d="M444.62,-100.05C442.32,-106.13 440.35,-112.37 439,-118.5 437.3,-126.23 437.57,-134.21 439.08,-142.01"/>
<polygon fill="black" stroke="black" points="435.71,-142.96 441.6,-151.77 442.49,-141.21 435.71,-142.96"/>
<text text-anchor="middle" x="455.5" y="-122.3" font-family="Times,serif" font-size="14.00">uses</text>
</g>
<!-- Utils&#45;&gt;BrainRoot -->
<g id="edge18" class="edge">
<title>Utils&#45;&gt;BrainRoot</title>
<path fill="none" stroke="black" d="M474.22,-940.44C439.25,-928.45 398.87,-911.09 367,-887.5 357.13,-880.2 347.85,-871.23 339.44,-861.83"/>
<polygon fill="black" stroke="black" points="342.07,-859.52 332.89,-854.22 336.76,-864.08 342.07,-859.52"/>
<text text-anchor="middle" x="383.5" y="-876.3" font-family="Times,serif" font-size="14.00">uses</text>
</g>
<!-- Utils&#45;&gt;BrainRegions -->
<g id="edge19" class="edge">
<title>Utils&#45;&gt;BrainRegions</title>
<path fill="none" stroke="black" d="M557.21,-905.9C564.52,-801.88 577.14,-587.02 559,-558.5 530.29,-513.37 493.83,-538.15 450,-507.5 447.81,-505.97 445.62,-504.38 443.44,-502.75"/>
<polygon fill="black" stroke="black" points="445.12,-499.63 435.07,-496.28 440.84,-505.16 445.12,-499.63"/>
<text text-anchor="middle" x="583.5" y="-710.3" font-family="Times,serif" font-size="14.00">uses</text>
</g>
<!-- Utils&#45;&gt;NeuromodulatorySystems -->
<g id="edge20" class="edge">
<title>Utils&#45;&gt;NeuromodulatorySystems</title>
<path fill="none" stroke="black" d="M570.4,-905.75C583.78,-851.56 595.12,-768.85 563,-706.5 560.89,-702.4 558.47,-698.47 555.8,-694.69"/>
<polygon fill="black" stroke="black" points="558.47,-692.42 549.57,-686.67 552.94,-696.71 558.47,-692.42"/>
<text text-anchor="middle" x="599.5" y="-793.3" font-family="Times,serif" font-size="14.00">uses</text>
</g>
<!-- Utils&#45;&gt;Neurons -->
<g id="edge21" class="edge">
<title>Utils&#45;&gt;Neurons</title>
<path fill="none" stroke="black" d="M598.2,-905.95C618.08,-875.78 637,-836.87 637,-798 637,-798 637,-798 637,-404 637,-342 639.07,-317.64 600,-269.5 586.06,-252.32 566.54,-239.07 546.86,-229.07"/>
<polygon fill="black" stroke="black" points="548.36,-225.91 537.83,-224.7 545.31,-232.21 548.36,-225.91"/>
<text text-anchor="middle" x="653.5" y="-619.8" font-family="Times,serif" font-size="14.00">uses</text>
</g>
<!-- Utils&#45;&gt;Synapses -->
<g id="edge22" class="edge">
<title>Utils&#45;&gt;Synapses</title>
<path fill="none" stroke="black" d="M631.86,-911.29C665.87,-882.82 698,-843.8 698,-798 698,-798 698,-798 698,-200.5 698,-140.25 641.53,-103.07 584.79,-80.91"/>
<polygon fill="black" stroke="black" points="585.91,-77.6 575.32,-77.35 583.45,-84.15 585.91,-77.6"/>
<text text-anchor="middle" x="714.5" y="-529.3" font-family="Times,serif" font-size="14.00">uses</text>
</g>
</g>
</svg>
